<?xml version="1.0" standalone="no"?>
<!DOCTYPE svg PUBLIC "-//W3C//DTD SVG 20010904//EN"
 "http://www.w3.org/TR/2001/REC-SVG-20010904/DTD/svg10.dtd">
<svg version="1.0" xmlns="http://www.w3.org/2000/svg"
 width="1202.000000pt" height="436.000000pt" viewBox="0 0 1202.000000 436.000000"
 preserveAspectRatio="xMidYMid meet">
<metadata>
Created by potrace 1.15, written by Peter Selinger 2001-2017
</metadata>
<g transform="translate(0.000000,436.000000) scale(0.100000,-0.100000)"
fill="#000000" stroke="none">
<path d="M6027 4164 c-3 -3 -2 -16 2 -28 5 -11 11 -34 15 -50 6 -26 5 -28 -8
-17 -9 8 -16 20 -16 28 0 20 -24 11 -28 -10 -2 -11 3 -17 15 -17 11 0 14 -3 7
-8 -21 -14 -23 -41 -3 -66 11 -13 16 -27 11 -30 -10 -6 -122 62 -122 75 0 5
-7 9 -15 9 -8 0 -15 -5 -15 -11 0 -6 -7 -9 -15 -6 -18 7 -30 -9 -13 -17 7 -3
0 -3 -15 1 -104 21 -263 -127 -259 -241 2 -27 -4 -46 -18 -61 -11 -11 -21 -32
-22 -45 -3 -21 1 -25 23 -22 19 2 38 -9 70 -38 24 -22 65 -57 91 -78 26 -20
47 -43 48 -50 0 -16 19 -49 50 -88 14 -18 45 -59 70 -93 41 -56 48 -61 82 -61
30 0 46 8 76 36 30 29 33 34 15 29 -19 -5 -23 -2 -23 14 0 16 6 21 24 21 13 0
26 5 28 12 3 9 13 8 39 -2 19 -8 37 -15 41 -15 3 0 17 -13 29 -29 19 -24 20
-28 6 -23 -32 12 -17 -12 18 -29 34 -16 38 -16 68 1 18 9 47 39 65 65 28 41
34 58 34 105 1 53 -10 84 -19 58 -3 -7 -9 -13 -14 -13 -6 0 -8 23 -6 56 5 61
-7 124 -24 124 -6 0 -13 -9 -16 -20 -6 -23 -23 -27 -23 -5 0 18 -12 19 -29 3
-7 -7 -1 7 13 32 14 25 26 50 26 57 0 6 -16 30 -35 53 -44 53 -45 70 -4 63
l32 -5 -39 34 c-52 44 -63 59 -63 83 0 17 1 17 7 3 11 -27 46 0 50 40 3 30 0
34 -37 50 -30 13 -39 21 -35 34 6 21 -39 36 -60 19 -15 -13 -29 -1 -40 36 -8
24 -30 46 -39 37z m154 -320 c7 -9 14 -26 14 -37 4 -67 7 -91 12 -79 2 6 11
12 20 12 21 0 10 -24 -13 -28 -10 -2 -36 -28 -57 -58 -22 -31 -41 -53 -44 -50
-3 3 -14 -5 -24 -19 -22 -27 -87 -70 -95 -62 -3 3 19 35 49 71 29 36 60 85 67
109 7 23 20 52 27 65 8 13 15 39 16 58 2 38 8 42 28 18z"/>
<path d="M10375 4059 c-49 -4 -97 -6 -106 -3 -9 2 -22 -2 -29 -11 -7 -8 -16
-12 -21 -9 -5 3 -9 0 -9 -6 0 -5 -16 -18 -35 -27 -19 -9 -35 -21 -35 -26 0 -5
-7 -7 -15 -3 -9 3 -24 -3 -35 -14 -11 -11 -22 -20 -25 -20 -10 1 -125 -135
-125 -147 0 -6 -11 -35 -25 -65 -14 -29 -30 -79 -36 -110 -6 -32 -15 -58 -19
-58 -4 0 -8 -19 -8 -42 0 -24 -3 -60 -7 -81 -4 -22 -3 -48 3 -60 15 -32 49
-186 43 -193 -3 -3 -6 -18 -7 -34 -1 -16 -11 -41 -24 -57 l-22 -28 31 -8 c17
-4 31 -9 31 -10 0 -1 -4 -17 -9 -35 -10 -33 -4 -41 17 -20 22 22 26 -2 4 -25
-17 -18 -20 -30 -15 -62 l6 -40 13 30 13 30 2 -32 c3 -54 3 -55 24 -67 11 -6
23 -15 28 -21 5 -6 11 -4 16 5 40 67 59 85 84 85 15 -1 27 0 27 1 0 1 -7 18
-15 37 -8 20 -15 50 -15 66 0 30 -73 150 -133 220 -28 32 -29 39 -24 98 2 35
8 67 11 70 3 3 14 -1 24 -10 19 -18 37 -23 28 -9 -3 5 5 8 17 8 17 -1 23 6 25
28 4 28 3 28 -34 22 -26 -5 -39 -4 -45 6 -15 22 -10 28 21 28 40 0 38 13 -6
39 -25 15 -34 26 -30 38 4 8 11 36 18 60 l11 45 23 -29 c13 -15 29 -41 36 -58
17 -40 44 -80 98 -143 38 -44 50 -52 79 -52 42 0 119 -47 127 -78 4 -13 1 -49
-5 -79 -14 -69 -14 -83 -1 -83 6 0 10 8 10 18 0 13 2 14 9 3 5 -7 7 -41 5 -74
-3 -42 -1 -63 8 -70 10 -7 10 -10 1 -14 -7 -2 -13 -11 -13 -19 0 -8 -7 -14
-15 -12 -8 2 -25 -10 -38 -26 -20 -25 -32 -30 -83 -34 -50 -4 -64 -10 -93 -39
-29 -29 -32 -35 -18 -46 11 -9 16 -40 20 -127 5 -115 21 -230 38 -262 5 -10 9
-27 9 -38 0 -12 5 -18 10 -15 6 3 10 -2 10 -12 0 -10 12 -26 26 -37 l26 -18
-17 31 c-9 17 -13 36 -10 41 3 5 0 12 -6 15 -5 4 -8 13 -5 21 3 7 1 16 -5 20
-7 4 -7 10 0 18 7 8 6 20 -3 37 -7 13 -11 30 -8 37 2 6 -1 12 -6 12 -6 0 -8 9
-5 20 3 11 0 26 -6 34 -7 8 -11 18 -10 22 2 5 -4 22 -11 37 -12 24 -12 30 0
37 11 7 11 12 2 23 -7 7 -9 17 -5 21 4 4 6 25 4 46 -3 42 15 56 22 18 l4 -23
8 23 c13 39 23 24 21 -33 -1 -36 4 -59 12 -64 7 -4 11 -16 10 -27 -3 -29 13
-104 23 -104 5 0 6 -6 3 -14 -3 -8 -1 -17 5 -21 6 -3 11 -15 11 -25 0 -11 9
-24 20 -30 25 -13 26 -2 3 16 -12 9 -14 13 -5 14 8 0 11 7 7 19 -6 19 23 39
34 24 3 -4 13 -14 22 -21 14 -11 17 -9 17 13 0 14 -6 25 -12 25 -6 0 -18 5
-26 10 -13 8 -13 11 -1 19 11 7 11 14 -4 38 -15 26 -15 32 -3 63 l15 35 7 -37
c9 -47 46 -78 96 -78 28 0 54 12 107 50 39 27 80 62 92 78 l21 30 -36 6 c-19
4 -44 16 -55 27 -15 15 -24 18 -34 9 -9 -8 -14 -7 -19 5 -3 8 -12 15 -21 15
-8 0 -15 5 -15 10 0 15 16 12 30 -5 17 -20 27 -19 35 5 5 16 12 18 38 14 29
-6 26 -2 -24 30 -68 43 -85 69 -37 55 39 -11 46 -5 24 20 -17 18 -16 19 26 16
66 -5 191 -85 132 -85 -15 0 -14 -3 6 -25 17 -18 19 -25 9 -25 -8 0 -20 -5
-26 -11 -9 -9 -6 -16 10 -30 l22 -18 -25 -10 c-14 -5 -19 -10 -12 -10 14 -1
17 -31 2 -31 -5 0 -10 6 -10 13 0 8 -4 7 -10 -3 -5 -8 -10 -17 -10 -20 0 -10
51 -5 58 5 4 6 23 10 42 10 19 0 38 -4 43 -10 4 -6 10 -5 16 5 6 8 12 12 15 9
6 -5 8 -133 3 -199 -2 -25 1 -51 6 -57 6 -9 6 -13 -1 -13 -6 0 -9 -6 -6 -13 3
-8 1 -33 -5 -56 -7 -33 -6 -45 6 -56 13 -13 12 -15 -5 -15 -18 0 -19 -5 -15
-40 4 -29 2 -40 -8 -40 -8 0 -6 -5 6 -13 13 -10 15 -16 6 -21 -9 -6 -8 -13 6
-29 10 -11 12 -17 6 -13 -14 8 -18 -6 -6 -18 10 -10 11 -46 1 -46 -4 0 -8 -9
-8 -20 0 -11 5 -20 10 -20 6 0 10 -4 10 -10 0 -5 -7 -10 -16 -10 -14 0 -14 -2
-3 -16 7 -9 24 -20 37 -25 18 -7 22 -14 17 -30 -5 -15 0 -27 16 -42 13 -12 27
-21 32 -19 5 1 6 -6 3 -16 -4 -11 0 -24 8 -31 12 -11 16 -6 21 26 3 21 8 47
10 57 2 11 -3 48 -11 83 -8 35 -12 68 -9 73 3 5 1 11 -5 15 -16 10 -11 25 6
18 14 -5 15 -3 5 15 -7 12 -16 22 -22 22 -6 0 -7 5 -4 10 4 6 10 8 14 5 5 -2
5 12 0 33 -4 20 -13 58 -18 84 -6 26 -17 71 -25 100 -9 32 -16 103 -17 178 -2
110 2 140 29 252 17 70 41 146 52 169 12 22 19 48 17 57 -2 12 -8 7 -21 -18
-28 -59 -49 -95 -56 -100 -4 -3 -10 -22 -14 -42 -5 -28 -12 -38 -26 -38 -23 0
-142 108 -134 121 3 6 0 17 -8 26 -7 10 -8 14 -1 10 6 -4 18 -4 27 -1 13 5 13
9 1 27 -14 23 -32 120 -18 102 4 -6 20 -18 36 -28 36 -23 37 -2 2 39 -35 41
-31 48 15 24 50 -26 52 -25 44 8 -7 24 -6 26 9 13 10 -8 17 -9 17 -3 0 6 -4
14 -10 17 -20 12 -9 25 20 25 21 0 30 -5 30 -16 0 -17 23 -44 39 -44 5 0 15
-8 20 -17 9 -16 10 -16 11 -2 0 9 7 20 15 23 12 4 5 20 -35 72 -29 36 -49 71
-47 78 3 6 -1 23 -9 37 -15 28 -18 53 -5 45 14 -9 25 72 12 88 -6 7 -9 21 -5
29 3 9 -1 26 -10 39 -9 12 -16 33 -16 47 0 13 -16 53 -35 88 -19 35 -35 70
-35 78 0 8 -4 15 -10 15 -5 0 -10 8 -10 18 -1 22 -102 144 -160 193 -53 44
-92 51 -225 38z"/>
<path d="M3445 3988 c-38 -5 -85 -15 -103 -24 -18 -9 -40 -13 -47 -10 -8 3
-30 -9 -49 -27 -19 -18 -48 -43 -63 -57 -29 -25 -37 -38 -84 -134 -17 -36 -20
-51 -11 -54 14 -4 16 -94 3 -127 -5 -11 -5 -30 0 -42 6 -17 5 -21 -6 -16 -19
7 -19 2 0 -33 17 -34 19 -54 5 -54 -11 0 -13 -30 -4 -54 3 -9 16 -16 29 -16
23 0 35 17 35 47 0 9 8 22 18 29 9 7 17 23 18 36 2 74 4 79 32 89 15 5 33 17
40 27 10 14 16 14 32 4 11 -6 26 -12 34 -12 8 0 47 -16 87 -35 41 -19 80 -35
89 -35 8 0 43 9 76 21 94 33 154 8 156 -66 0 -22 3 -44 6 -49 3 -6 4 -33 3
-60 -3 -51 -3 -51 18 -32 14 12 19 26 15 40 -3 12 0 35 7 51 7 17 13 45 14 64
1 21 10 41 23 51 12 10 20 19 18 21 -2 2 -6 17 -10 32 -6 25 -4 28 13 22 18
-6 19 -4 9 27 -5 18 -15 51 -21 73 -14 57 -31 95 -39 95 -5 0 -8 8 -8 17 0 13
3 14 12 5 13 -13 28 -16 28 -4 0 10 -99 124 -123 141 -11 8 -33 16 -50 17 -17
2 -38 11 -47 19 -9 8 -20 12 -23 8 -4 -3 -7 -2 -7 3 0 11 -36 12 -125 2z"/>
<path d="M1067 3494 c-10 -13 -23 -24 -29 -24 -5 0 -23 -11 -38 -24 -16 -13
-46 -26 -67 -29 -22 -4 -48 -16 -58 -27 -10 -11 -21 -17 -26 -15 -11 8 -59
-58 -59 -81 0 -11 -5 -25 -10 -30 -6 -6 -11 -33 -12 -60 0 -27 -4 -51 -8 -54
-5 -3 -12 -18 -15 -33 -6 -21 -4 -27 9 -27 9 0 16 -8 16 -19 0 -10 6 -24 14
-30 7 -6 14 -29 14 -51 1 -24 12 -61 29 -91 l27 -51 -24 -19 c-31 -23 -47 -38
-88 -88 -18 -21 -47 -45 -63 -51 -16 -7 -29 -16 -29 -20 0 -14 -89 -59 -92
-48 -2 6 -18 -3 -35 -21 -17 -17 -35 -31 -40 -31 -4 0 -25 -16 -45 -36 -57
-53 -53 -79 32 -221 94 -157 133 -238 132 -272 0 -17 8 -37 19 -47 10 -9 19
-26 19 -36 0 -22 45 -114 61 -124 16 -10 59 -110 59 -138 0 -13 6 -41 13 -62
27 -76 30 -97 13 -91 -10 4 -16 1 -16 -8 0 -8 4 -15 9 -15 6 0 25 -14 43 -30
18 -17 28 -30 23 -30 -22 0 22 -20 44 -20 23 0 24 -1 6 -20 -39 -43 -21 -194
31 -251 25 -28 8 -36 -24 -13 -34 25 -71 98 -72 142 0 45 -13 40 -40 -18 -13
-28 -30 -56 -37 -62 -7 -6 -13 -21 -13 -34 0 -21 -5 -24 -35 -24 -29 0 -37 5
-46 27 l-10 26 -28 -27 c-32 -31 -101 -45 -101 -21 0 19 -10 19 -24 -1 -9 -12
-31 -16 -84 -17 -54 -2 -71 -5 -67 -15 2 -7 -6 -17 -21 -22 -36 -14 -42 -12
-19 6 l20 16 -20 -5 c-56 -16 -81 -21 -96 -19 -9 2 -19 -4 -22 -12 -4 -9 -13
-13 -20 -10 -30 11 -130 -73 -151 -128 -21 -52 -22 -210 -2 -228 8 -6 13 -17
10 -24 -3 -8 10 -30 29 -50 25 -26 34 -43 30 -59 -4 -18 -3 -19 6 -7 9 13 15
10 37 -17 14 -18 33 -33 42 -33 9 0 28 -9 42 -20 14 -11 35 -20 48 -20 13 0
37 -8 55 -17 18 -9 39 -18 47 -19 8 -1 33 -6 55 -12 22 -6 69 -18 105 -27 98
-24 144 -38 153 -45 10 -9 -12 -27 -38 -32 -11 -2 -19 -11 -19 -21 1 -12 -6
-17 -25 -17 -14 0 -60 -9 -101 -20 -41 -11 -94 -20 -117 -20 -32 0 -43 -4 -43
-15 0 -21 107 -21 146 0 16 8 53 15 82 15 41 0 54 4 59 17 4 10 26 37 48 61
l42 43 45 -11 c44 -11 46 -14 44 -43 -4 -47 -5 -49 -15 -42 -6 3 -27 8 -48 10
-28 4 -46 0 -68 -16 l-30 -21 55 6 c30 4 95 12 143 18 79 11 88 14 86 32 -2
34 0 35 33 25 23 -6 34 -5 40 4 6 9 10 9 17 -2 7 -10 41 -17 113 -22 57 -4
126 -15 153 -25 73 -24 284 -35 343 -18 25 8 89 14 143 14 77 0 98 3 103 15 3
8 12 15 21 15 20 0 19 1 -10 62 -30 63 -31 85 -5 93 11 3 20 14 21 23 0 11 3
12 6 5 2 -7 18 -13 34 -13 l29 0 -20 20 c-11 11 -20 26 -20 33 0 19 -33 47
-55 47 -15 0 -16 -3 -7 -12 18 -18 15 -28 -9 -28 -15 0 -19 5 -15 15 3 10 -3
17 -19 21 -14 3 -25 10 -25 15 0 5 11 7 24 3 40 -10 67 4 60 30 -7 28 35 66
73 66 14 0 21 4 18 10 -7 11 35 30 66 30 11 0 60 -16 109 -35 106 -41 132 -43
185 -10 22 14 55 25 73 25 17 0 32 4 32 9 0 15 -30 21 -51 11 -10 -6 -19 -7
-19 -3 0 4 -5 2 -12 -5 -25 -25 -39 -13 -18 16 31 42 48 127 40 203 -10 86
-28 149 -43 146 -7 -1 -11 8 -8 27 2 23 0 28 -14 22 -9 -3 -20 -6 -24 -6 -4 0
-27 -41 -51 -90 -42 -87 -90 -150 -116 -150 -6 0 -17 -7 -24 -15 -7 -8 -20
-15 -28 -15 -13 0 -13 2 3 13 10 8 15 19 11 25 -11 19 4 43 23 33 19 -10 51
11 70 47 14 25 3 28 -25 7 -10 -8 -26 -15 -35 -15 -9 0 -34 -8 -55 -17 -50
-22 -95 -25 -114 -7 -19 16 -60 8 -60 -12 0 -8 -7 -14 -15 -14 -8 0 -15 7 -15
16 0 12 -3 14 -12 6 -31 -25 -128 -26 -128 0 0 5 -9 23 -21 39 -13 18 -18 36
-14 49 4 12 2 20 -5 20 -7 0 -10 7 -7 15 4 8 -6 24 -23 39 -28 23 -29 28 -24
73 4 26 13 58 20 70 18 29 18 39 -1 23 -20 -16 -29 -7 -20 19 7 23 24 28 26 9
1 -7 4 -2 8 11 6 22 12 25 56 25 42 1 63 9 128 49 42 27 83 57 90 67 24 34 95
63 161 65 35 1 71 7 82 13 17 10 17 12 4 25 -8 8 -30 19 -49 26 -48 16 -311
14 -392 -3 -110 -24 -214 -86 -232 -139 -3 -9 -10 -9 -31 1 -21 10 -42 9 -106
-4 -91 -19 -110 -12 -110 37 0 23 5 29 21 29 11 0 32 9 46 20 14 11 32 20 39
20 8 0 14 5 14 11 0 7 -9 9 -22 5 -13 -4 -39 -10 -59 -13 -35 -5 -37 -4 -50
33 -7 22 -13 83 -14 136 -1 74 -5 102 -17 115 -9 10 -32 47 -52 83 -19 36 -40
64 -45 63 -20 -5 -139 170 -214 313 -26 49 -36 104 -19 104 4 0 28 -40 54 -88
26 -48 63 -112 82 -142 62 -96 39 -26 -40 127 -74 142 -97 203 -75 203 6 0 32
-43 58 -95 39 -78 52 -95 68 -93 17 3 20 -2 17 -27 -3 -32 34 -147 72 -225 13
-25 39 -80 59 -122 22 -47 44 -79 56 -83 20 -6 101 11 101 21 0 14 -55 75 -90
99 -41 28 -51 45 -27 45 17 0 137 -124 159 -164 9 -17 17 -27 18 -23 0 17 -62
156 -76 168 -12 10 -12 6 1 -25 19 -45 13 -46 -15 -2 -11 19 -37 45 -56 56
-40 26 -45 45 -8 36 20 -5 27 -3 31 14 6 23 6 23 53 10 28 -8 38 -18 53 -54
30 -74 41 -75 78 -12 19 31 37 56 40 56 4 0 5 -18 2 -40 -4 -28 0 -47 12 -67
18 -27 18 -27 -19 -60 -27 -25 -34 -38 -28 -49 7 -13 18 -7 60 34 29 28 52 50
53 49 10 -29 3 -76 -14 -98 -26 -36 -27 -106 -3 -140 l18 -24 -6 28 c-3 15 -8
37 -11 50 -6 23 27 87 44 87 5 0 12 -30 16 -67 8 -82 19 -129 28 -125 4 1 52
2 107 2 87 0 99 2 93 16 -5 14 -3 15 15 5 24 -13 62 -15 62 -3 0 5 -11 15 -25
22 -16 8 -25 22 -25 37 0 22 4 23 68 23 63 1 66 2 42 15 -14 8 -43 15 -65 15
-58 0 -85 10 -85 30 0 10 10 20 23 24 35 9 77 7 77 -4 0 -5 5 -10 10 -10 6 0
10 6 10 14 0 16 21 26 58 26 23 1 25 2 10 11 -10 5 -18 17 -18 24 0 9 -10 15
-24 15 -13 0 -31 3 -39 6 -12 4 -14 0 -10 -14 6 -24 -17 -39 -82 -51 -55 -10
-57 -2 -16 78 39 77 80 241 81 318 0 27 6 49 18 60 37 37 103 207 101 262 -2
68 -76 131 -179 155 -133 30 -125 29 -139 0 -8 -19 -9 -30 -1 -38 26 -26 -1
-99 -30 -81 -7 4 -10 1 -9 -6 4 -24 -34 -111 -56 -129 -8 -7 -15 -20 -15 -30
0 -18 -30 -50 -46 -50 -6 0 -16 6 -22 12 -10 10 -6 15 20 24 41 14 46 30 11
38 -15 4 -39 14 -51 22 -23 15 -23 16 -5 29 10 8 34 15 52 15 24 0 32 3 25 10
-6 6 -24 10 -40 10 -16 0 -49 -1 -74 -2 -66 -1 -132 12 -159 33 -13 11 -21 19
-18 19 4 0 -5 21 -18 46 -14 26 -25 53 -25 60 0 8 -5 14 -11 14 -8 0 -9 4 0
13 6 8 7 17 3 22 -14 15 67 -4 124 -30 112 -50 120 -55 130 -87 5 -18 16 -34
24 -36 13 -5 13 -3 2 11 -24 29 -10 60 36 81 23 11 42 25 42 33 0 16 -5 16
-29 1 -10 -6 -27 -8 -36 -4 -17 6 -15 10 15 38 19 17 36 26 38 19 2 -7 9 -6
19 4 20 21 30 19 39 -7 3 -12 13 -28 21 -36 12 -12 17 -10 38 14 37 43 31 61
-8 27 -19 -18 -19 -17 -12 17 8 36 23 67 53 110 10 14 11 21 4 16 -8 -5 -19
-1 -27 10 -14 18 -14 18 -15 -5 0 -39 -40 -113 -56 -107 -15 6 -115 -17 -137
-31 -6 -4 -28 -8 -47 -8 -31 0 -35 -3 -35 -26 1 -25 -1 -26 -22 -12 -12 8 -28
11 -34 7 -8 -4 -9 -3 -5 4 5 8 -2 12 -19 12 -14 0 -28 6 -31 14 -3 8 -19 20
-35 26 -44 19 -37 40 14 40 23 0 52 3 64 6 26 7 39 39 23 59 -8 10 -8 14 2 18
22 9 -10 25 -39 19 -18 -3 -24 -1 -19 7 4 6 3 11 -2 11 -6 0 -12 7 -16 15 -4
12 0 14 19 9 17 -4 27 -1 31 9 3 9 12 13 21 10 13 -5 13 -3 4 15 -7 12 -16 22
-21 22 -6 0 -10 5 -10 11 0 6 7 8 15 5 8 -3 22 -9 31 -12 12 -5 12 -1 -4 25
-23 38 -18 71 22 146 33 61 46 75 46 51 0 -20 -31 -76 -42 -76 -10 0 0 -71 13
-86 5 -6 19 -10 29 -7 11 3 27 0 35 -7 12 -10 14 -7 12 17 -2 26 0 28 35 26
21 -1 41 3 47 11 7 8 21 12 31 9 11 -3 20 -3 20 0 0 13 -31 76 -41 82 -6 4 -8
17 -5 29 6 27 -25 66 -53 66 -12 0 -21 -5 -21 -10 0 -6 -8 -5 -20 2 -11 7 -20
18 -20 25 0 6 -8 18 -18 25 -10 7 -24 28 -31 46 -13 32 -14 32 -82 32 -38 0
-71 0 -74 0 -3 0 -20 7 -38 17 -17 9 -59 18 -92 19 -54 3 -62 0 -78 -22z m118
-1166 c11 -1 46 2 77 6 69 8 78 -2 46 -52 -19 -28 -24 -46 -20 -74 4 -33 2
-38 -17 -38 -12 0 -21 -4 -21 -8 0 -4 -16 -8 -35 -9 -33 -1 -35 1 -35 33 0 38
-29 74 -58 74 -10 0 -25 11 -32 25 -19 35 2 59 44 50 17 -3 40 -7 51 -7z
m-381 -491 c3 -29 8 -79 12 -112 7 -78 28 -162 48 -200 19 -36 12 -45 -15 -18
-25 25 -69 154 -62 182 3 10 -7 63 -21 118 -14 54 -29 109 -32 123 -7 24 -5
24 29 -8 28 -28 36 -43 41 -85z m429 -476 c19 -1 27 -6 27 -19 0 -24 -36 -40
-116 -51 -83 -12 -135 -7 -151 15 -16 21 -17 34 -3 35 6 1 16 2 23 3 6 1 15
-3 19 -9 5 -6 8 -2 8 9 0 13 5 17 18 14 9 -3 38 -2 62 2 25 3 54 5 65 4 11 -1
32 -2 48 -3z m-926 -333 c21 -12 42 -28 46 -36 5 -7 18 -17 30 -22 19 -8 19
-9 3 -9 -12 -1 -16 -6 -12 -17 3 -9 6 -19 6 -24 0 -11 61 -72 86 -86 16 -9 17
-14 6 -27 -9 -10 -9 -17 -3 -22 12 -7 9 -53 -3 -74 -10 -16 11 -67 32 -77 10
-5 33 -8 52 -8 31 -1 35 -4 33 -26 -2 -19 5 -29 29 -41 17 -8 34 -21 36 -28 2
-7 -14 -1 -37 13 -48 31 -54 31 -76 10 -17 -18 -74 -22 -114 -9 -18 5 -23 4
-19 -6 8 -19 -37 -17 -86 4 -21 9 -44 17 -51 17 -7 0 -15 6 -18 14 -3 8 -14
12 -24 10 -11 -3 -30 3 -43 14 l-23 19 47 43 c26 24 52 53 58 64 6 12 -17 -6
-50 -38 -60 -58 -62 -59 -89 -46 -27 13 -27 14 -6 18 20 3 103 90 103 107 0 4
-15 -4 -34 -19 -31 -23 -35 -24 -47 -9 -12 15 -12 16 3 10 10 -3 20 -2 23 3 4
6 -3 10 -15 10 -15 0 -20 5 -18 18 3 11 12 16 26 15 23 -3 28 6 13 22 -15 16
-25 85 -12 85 6 0 11 5 11 10 0 6 10 26 23 45 15 24 27 33 39 29 10 -3 27 0
39 7 20 10 26 8 51 -20 15 -17 28 -25 28 -18 0 18 -35 54 -61 62 -32 10 -140
-15 -166 -38 -13 -11 -32 -40 -44 -64 -21 -43 -32 -52 -44 -33 -3 6 -1 10 5
10 6 0 20 20 31 45 11 25 25 45 31 45 6 0 8 10 4 24 -5 22 -3 24 32 23 28 0
116 14 129 22 1 1 19 -9 40 -21z m343 -104 c0 -8 4 -13 9 -10 5 3 14 -1 21 -9
7 -8 19 -15 26 -15 8 0 14 -5 14 -11 0 -8 4 -8 13 -1 22 19 322 -72 363 -109
11 -11 28 -17 36 -14 9 4 19 2 22 -4 4 -6 13 -8 21 -4 8 3 15 0 15 -6 0 -13
29 -3 55 19 58 51 126 66 163 37 9 -7 19 -4 33 9 12 11 32 17 46 16 15 -2 40
7 63 23 21 15 44 24 50 20 6 -4 18 -1 27 6 19 16 85 40 92 33 3 -2 -1 -10 -7
-16 -17 -17 -15 -28 3 -22 20 8 19 -6 -1 -35 -10 -14 -23 -21 -34 -18 -21 5
-31 -1 -46 -27 -14 -25 -34 -32 -34 -12 0 9 -4 16 -10 16 -5 0 -7 7 -4 15 8
19 -1 19 -32 -1 -14 -9 -41 -18 -60 -20 -20 -1 -44 -10 -55 -20 -10 -9 -22
-14 -26 -11 -3 4 -14 0 -24 -9 -10 -9 -27 -14 -39 -11 -11 3 -23 1 -26 -4 -3
-5 -19 -9 -36 -9 -26 0 -29 -2 -18 -15 7 -8 18 -14 24 -14 6 1 24 -3 39 -9 16
-7 36 -12 46 -12 21 0 47 -27 37 -37 -3 -4 -12 -1 -18 5 -7 7 -23 12 -36 12
-13 0 -33 5 -45 11 -17 8 -15 4 8 -18 24 -23 39 -29 71 -28 37 0 40 -1 30 -17
-7 -11 -14 -14 -20 -8 -16 16 -30 11 -16 -5 7 -9 10 -19 6 -23 -4 -4 -17 5
-28 21 -11 15 -26 27 -35 27 -11 0 -10 -7 7 -31 28 -38 21 -46 -13 -18 -15 11
-27 16 -27 10 0 -5 7 -14 16 -19 10 -5 14 -15 10 -21 -6 -9 -11 -9 -22 0 -11
9 -15 8 -20 -4 -3 -9 -12 -13 -20 -10 -8 3 -14 1 -14 -5 0 -5 -11 -12 -24 -14
-21 -4 -23 -3 -13 14 7 10 20 21 29 24 10 3 18 14 18 25 0 10 6 19 14 19 17 0
40 26 28 34 -4 2 -21 -6 -37 -20 -15 -13 -34 -24 -41 -24 -8 0 -11 -6 -8 -15
5 -12 -2 -14 -34 -11 -33 3 -39 0 -35 -13 4 -14 3 -14 -6 -1 -6 8 -11 24 -12
35 0 11 -3 14 -6 8 -5 -13 -33 -19 -33 -7 0 3 7 12 15 21 8 8 13 19 10 24 -7
11 -25 12 -24 2 3 -21 -4 -19 -33 9 -36 33 -73 51 -103 50 -10 -1 -25 4 -32
10 -8 6 -16 8 -20 4 -12 -11 14 -28 45 -30 17 -1 44 -13 61 -29 31 -27 35 -35
32 -72 -2 -21 55 -72 66 -61 4 3 13 -3 20 -14 10 -14 21 -19 34 -15 15 5 19 1
19 -14 0 -12 -6 -21 -12 -22 -7 0 -31 -1 -53 -3 -22 -1 -47 3 -55 10 -8 7 -42
15 -75 18 -33 4 -73 9 -89 11 -17 2 -38 -1 -49 -7 -31 -16 -40 3 -26 52 11 35
10 43 -1 50 -9 6 -15 29 -17 62 -1 52 -2 53 -32 52 -17 -1 -31 3 -31 8 0 6 -9
18 -20 28 -10 9 -24 29 -30 45 -9 24 -14 27 -43 21 -22 -4 -28 -3 -17 4 12 8
8 15 -23 41 -28 23 -35 34 -27 44 6 7 7 21 3 31 -7 18 -6 18 17 1 25 -17 35
-22 66 -32 8 -3 12 -9 9 -15 -4 -7 -14 -5 -28 5 -36 25 -53 18 -23 -10 14 -13
26 -29 26 -36 0 -6 10 1 22 16 19 25 23 26 34 11 8 -11 14 -13 19 -7 12 20 27
12 19 -11 -6 -21 -6 -21 11 -4 21 21 11 32 -42 42 -18 3 -33 10 -33 15 0 5 -5
9 -11 9 -6 0 -25 10 -42 22 -27 20 -28 22 -11 29 29 11 34 10 34 -7z"/>
<path d="M7263 3086 c-33 -30 -52 -61 -115 -188 -16 -35 -7 -43 17 -15 32 36
32 24 1 -17 -13 -17 -32 -55 -42 -83 -18 -50 -18 -52 0 -72 15 -16 17 -29 12
-63 l-7 -43 26 35 c14 19 29 50 34 70 24 100 35 157 33 173 -1 10 5 17 14 17
11 0 14 5 10 16 -4 9 3 33 15 53 13 22 17 37 10 39 -16 5 -13 22 4 22 8 0 16
8 17 18 2 32 4 37 12 50 17 28 -4 22 -41 -12z"/>
<path d="M6829 3044 c-1 -5 -1 -13 0 -18 5 -23 -11 -57 -23 -53 -27 11 -192
-41 -210 -66 -6 -8 -27 -18 -46 -22 -51 -11 -72 -24 -38 -25 15 0 30 5 33 10
3 6 18 10 33 10 15 0 36 7 46 15 10 8 23 12 28 9 5 -3 15 0 23 6 8 7 15 10 15
8 0 -3 26 1 57 8 31 7 59 11 61 9 10 -9 -10 -55 -23 -55 -8 0 -15 -5 -15 -11
0 -6 7 -9 15 -5 11 4 15 -2 14 -22 -1 -40 -13 -75 -26 -79 -7 -3 -9 4 -6 16 3
12 1 21 -5 21 -12 0 -27 -19 -27 -34 0 -10 -112 -36 -120 -28 -3 3 -5 1 -5 -5
0 -6 -16 -18 -35 -27 -19 -9 -35 -21 -35 -26 0 -15 33 -17 65 -4 17 7 53 15
80 19 28 3 60 8 73 11 15 3 22 0 22 -10 0 -21 -9 -25 -97 -38 -49 -7 -91 -20
-113 -35 -19 -13 -42 -23 -51 -23 -9 0 -22 -7 -29 -15 -7 -8 -21 -15 -31 -15
-11 0 -19 -5 -19 -11 0 -16 63 -5 109 19 40 21 128 41 174 40 34 -1 34 -32 0
-34 -51 -3 -71 -27 -33 -39 12 -4 28 -1 37 7 15 11 16 11 10 -5 -4 -10 -7 -21
-7 -23 0 -3 -4 -2 -10 1 -14 9 -50 -13 -50 -30 0 -8 -5 -15 -11 -15 -5 0 -7
-5 -4 -10 11 -17 -25 -23 -71 -13 -29 7 -41 7 -37 0 4 -6 0 -8 -10 -4 -11 4
-17 1 -17 -7 0 -19 -31 -29 -43 -14 -6 10 -8 9 -4 -3 4 -12 -7 -23 -37 -38
-49 -24 -88 -61 -65 -61 8 0 19 4 25 8 5 5 44 23 87 42 66 28 85 32 128 27 30
-4 60 -2 71 4 16 8 19 8 16 -2 -7 -22 -71 -50 -98 -44 -57 14 -78 10 -150 -28
-41 -22 -87 -48 -102 -58 -14 -11 -36 -19 -48 -19 -12 0 -18 -5 -15 -10 8 -13
46 -3 101 26 24 13 44 21 44 17 0 -8 -41 -43 -52 -43 -4 0 -8 -7 -8 -15 0 -8
-16 -27 -35 -42 -19 -15 -35 -30 -35 -33 0 -6 107 -13 212 -14 38 -1 68 -3 68
-6 -1 -40 -92 -51 -177 -21 -33 11 -70 21 -83 21 -25 0 -110 -39 -110 -51 0
-4 -15 -13 -34 -19 -39 -12 -77 -48 -41 -38 11 3 28 9 38 13 37 15 14 -12 -33
-38 -60 -34 -118 -41 -178 -21 -43 15 -69 15 -119 -1 -13 -4 -23 -3 -23 2 0 5
27 18 60 30 45 15 70 19 96 13 35 -8 74 -3 74 9 0 4 -10 13 -23 20 -26 14 -84
10 -135 -9 -25 -10 -36 -9 -47 0 -10 8 -15 9 -15 2 0 -7 -10 -6 -27 3 -14 8
-41 12 -59 9 -51 -6 -48 11 4 26 l47 14 -60 6 c-67 6 -62 17 11 25 92 10 242
51 230 62 -2 3 -35 -4 -73 -16 -44 -13 -99 -21 -154 -22 -102 -2 -129 8 -73
27 21 7 41 11 45 8 4 -2 33 3 66 11 l58 15 -87 -5 -87 -6 -36 35 c-20 20 -33
41 -30 47 4 5 -1 17 -11 25 -15 12 -16 17 -6 21 10 4 8 11 -9 29 -12 13 -23
32 -24 41 -1 21 -54 103 -65 103 -5 0 -1 -21 7 -47 36 -112 39 -126 26 -130
-7 -3 -13 -12 -13 -20 0 -13 3 -13 15 -3 12 10 15 10 15 -4 0 -9 -5 -16 -11
-16 -8 0 -8 -4 -2 -12 6 -7 13 -21 16 -31 6 -15 4 -16 -13 -7 -25 13 -25 9 0
-20 14 -16 18 -30 13 -44 -11 -31 -4 -192 11 -226 3 -8 7 -48 9 -89 2 -63 6
-75 22 -82 18 -7 18 -8 2 -8 -12 -1 -17 -7 -15 -18 2 -12 16 -20 43 -24 l40
-6 -43 -2 c-30 -1 -42 -5 -40 -13 3 -7 15 -14 27 -14 12 -1 27 -6 34 -13 8 -8
3 -11 -21 -11 l-31 0 5 -67 c4 -47 12 -74 25 -89 23 -25 24 -34 4 -34 -21 0
-19 -13 5 -27 11 -8 21 -9 25 -3 3 5 12 7 20 3 8 -3 15 0 15 6 0 6 5 11 10 11
6 0 10 -13 10 -29 0 -17 5 -33 10 -36 6 -3 10 2 10 11 0 16 1 16 20 -1 12 -11
30 -16 49 -13 16 2 29 0 28 -5 -4 -18 44 -16 87 4 35 16 50 32 74 77 24 44 44
65 87 92 31 19 78 50 105 67 27 18 79 40 115 49 110 28 224 114 368 279 87 99
104 111 82 60 -19 -47 -19 -56 0 -49 16 6 95 -42 95 -57 0 -5 4 -9 8 -9 13 0
42 56 42 82 0 24 41 128 50 128 3 0 28 -46 55 -102 28 -56 64 -122 81 -148 17
-25 34 -55 38 -67 4 -12 13 -27 21 -33 8 -7 15 -21 15 -32 0 -21 -27 -67 -49
-84 -9 -7 -14 -36 -15 -92 0 -45 -4 -82 -8 -82 -14 0 -83 -104 -80 -120 2 -8
11 -26 21 -40 22 -30 33 -86 32 -156 -1 -42 4 -57 29 -89 16 -21 30 -41 30
-46 0 -4 22 -36 48 -71 l49 -63 -30 -2 c-16 -1 -32 -5 -35 -8 -14 -14 14 -17
85 -10 66 7 74 10 52 18 -24 9 -59 56 -59 81 0 6 20 20 45 30 47 20 75 52 75
86 0 43 70 140 101 140 11 0 22 7 25 15 4 8 12 15 20 15 7 0 20 10 29 22 13
19 18 21 34 11 10 -6 47 -15 82 -18 66 -7 148 -31 214 -62 l37 -18 35 40 c47
53 83 131 83 178 0 39 52 153 73 160 18 6 -1 37 -23 37 -11 0 -32 7 -45 16
l-25 16 11 -32 c15 -40 0 -58 -25 -31 -18 20 -19 19 -41 -22 -13 -25 -19 -46
-14 -51 11 -12 12 -26 1 -26 -9 0 -89 79 -114 112 -10 13 -27 35 -38 50 -11
14 -20 35 -20 47 0 11 -4 30 -9 43 -5 13 -14 52 -20 86 l-12 64 50 102 c88
181 95 224 49 287 -36 49 -13 88 147 252 34 34 40 48 41 84 1 42 -1 45 -50 78
-28 19 -73 51 -100 70 -53 39 -66 42 -66 20 0 -8 7 -15 15 -15 8 0 15 -9 15
-19 0 -11 2 -25 5 -33 4 -10 -4 -13 -36 -10 -23 3 -74 -1 -114 -8 -67 -11 -80
-11 -161 10 -107 28 -126 41 -99 69 16 19 16 21 1 27 -9 3 -13 10 -10 15 3 5
2 9 -3 9 -18 -1 -57 -54 -90 -122 l-35 -72 15 -61 c8 -33 26 -79 39 -100 24
-42 48 -101 48 -123 0 -16 60 -102 71 -102 4 0 1 16 -7 35 -17 41 -10 45 18
10 10 -13 23 -24 28 -22 9 2 110 -89 110 -99 0 -4 -20 -4 -45 -2 -38 5 -45 3
-51 -15 -8 -24 12 -91 39 -130 10 -15 33 -35 50 -44 18 -9 27 -18 20 -20 -16
-6 -86 40 -110 71 -23 29 -35 59 -52 131 -7 28 -21 64 -32 80 l-21 30 7 -45
c4 -25 8 -52 9 -60 1 -8 10 -33 20 -55 24 -53 46 -115 41 -115 -2 0 -18 23
-35 52 l-32 52 -24 -55 c-26 -61 -29 -90 -12 -107 8 -8 8 -15 1 -24 -6 -7 -7
-22 -3 -33 8 -20 67 -77 106 -102 17 -11 14 -12 -21 -10 -41 3 -96 27 -127 55
-34 29 -21 -22 15 -60 54 -59 79 -89 99 -124 25 -42 19 -67 -7 -28 -10 16 -45
61 -77 101 -32 39 -58 78 -58 85 0 8 -20 34 -45 58 -45 44 -56 47 -33 10 14
-23 8 -33 -16 -24 -10 4 -15 13 -11 24 3 10 1 21 -5 25 -6 4 -9 13 -6 21 3 8
0 14 -5 14 -6 0 -9 9 -6 20 3 10 -1 24 -9 31 -8 6 -14 17 -14 24 0 14 -38 90
-66 135 -15 23 -15 23 9 -2 14 -16 27 -28 29 -28 2 0 3 74 4 165 0 129 -3 165
-13 165 -17 0 -17 27 0 33 9 3 9 13 -1 48 -8 25 -13 89 -13 146 0 57 -4 105
-10 108 -14 9 -74 -45 -87 -77 -5 -16 -15 -28 -21 -28 -9 0 -30 56 -32 90 0 8
-9 -10 -19 -40 l-18 -55 -1 103 c-1 99 -5 114 -27 92 -7 -7 -11 -1 -11 20 0
16 5 30 10 30 5 0 6 14 2 33 -3 17 -7 48 -8 69 -2 33 -15 65 -18 42z m751
-406 c0 -7 13 -28 29 -47 22 -27 36 -34 73 -37 25 -3 64 2 88 11 24 8 46 12
49 9 3 -3 -11 -21 -31 -39 -21 -17 -38 -39 -38 -48 0 -22 -97 -135 -131 -152
-63 -33 -129 -9 -173 62 -17 27 -49 78 -73 115 -24 37 -43 69 -43 71 0 2 28
-2 63 -9 84 -18 113 -7 146 54 13 24 41 30 41 10z m-1140 -564 c76 -7 104 -14
95 -22 -4 -4 -10 -7 -13 -8 -4 0 -15 -4 -26 -9 -10 -4 -40 -3 -68 4 -60 13
-78 14 -78 2 0 -9 39 -23 75 -27 11 -2 32 -6 48 -11 26 -8 27 -9 11 -31 -10
-15 -23 -22 -34 -19 -12 3 -17 0 -14 -8 9 -22 -11 -25 -72 -14 -32 6 -70 12
-84 14 -14 2 -27 4 -29 4 -2 1 4 10 15 22 10 12 18 30 16 40 -2 10 2 19 7 19
6 0 11 -4 11 -10 0 -17 14 -10 33 16 16 21 17 27 5 41 -12 14 -10 16 17 10 17
-4 55 -10 85 -13z m-265 -224 c117 -23 133 -32 75 -43 -14 -3 -34 -9 -44 -13
-13 -5 -17 -4 -13 3 4 6 0 13 -8 17 -8 3 -15 1 -15 -4 0 -5 -8 -6 -17 -3 -12
5 -15 2 -10 -9 6 -18 -12 -24 -81 -27 -35 -2 -48 3 -66 22 l-23 25 39 -5 c44
-6 48 1 16 28 l-23 18 23 1 c12 0 22 -4 22 -10 0 -5 4 -10 10 -10 5 0 7 7 4
15 -8 19 -5 19 111 -5z"/>
<path d="M8144 2866 c-3 -7 -4 -17 -3 -22 2 -5 -1 -20 -5 -33 -5 -14 -4 -26 2
-30 5 -3 19 -26 32 -50 17 -35 21 -56 18 -98 -5 -59 -2 -59 33 6 17 32 21 45
12 48 -17 6 -17 23 0 23 14 0 47 -50 47 -72 0 -7 -10 -31 -21 -53 -18 -33 -19
-43 -9 -60 10 -16 10 -18 -1 -7 -33 31 -37 -1 -14 -121 20 -104 19 -181 -1
-212 -9 -14 -14 -35 -11 -47 4 -15 -1 -27 -19 -41 -22 -17 -25 -25 -19 -56 4
-20 11 -40 16 -46 5 -5 9 -18 9 -28 0 -17 -2 -17 -19 4 -18 23 -20 23 -27 5
-4 -12 -2 -21 7 -27 8 -4 23 -14 33 -22 18 -13 19 -16 4 -31 -16 -15 -20 -14
-55 10 l-38 26 -3 -26 c-2 -14 -12 -31 -23 -36 -10 -6 -19 -21 -19 -33 0 -12
-7 -31 -15 -41 -16 -21 -12 -52 12 -100 14 -26 13 -28 -1 -23 -20 8 -20 -2 0
-42 20 -40 38 -48 75 -34 16 6 29 8 29 3 0 -5 13 -11 30 -15 40 -9 90 -57 90
-87 0 -33 -40 -114 -100 -203 -57 -85 -95 -167 -87 -188 4 -10 31 -13 118 -12
95 1 121 5 156 23 38 20 42 26 48 69 3 27 10 68 15 93 5 25 9 59 9 75 0 41 19
255 26 282 3 12 0 23 -5 25 -6 2 -13 46 -15 101 -2 54 -9 105 -15 112 -8 9 -9
33 -5 70 5 38 4 60 -5 70 -18 22 -32 18 -28 -6 2 -18 -3 -22 -31 -25 -30 -4
-33 -2 -27 18 3 13 6 28 6 35 0 16 58 34 86 27 21 -5 24 -3 24 24 0 34 16 42
93 42 42 0 64 13 37 22 -7 2 -4 26 8 65 11 34 17 65 14 68 -3 3 1 5 8 5 7 0
10 3 7 7 -4 3 -1 16 6 27 12 18 11 28 -3 71 l-17 50 -17 -28 c-10 -15 -24 -27
-31 -27 -8 0 -18 -15 -24 -32 -6 -18 -28 -56 -50 -84 -21 -28 -46 -75 -56
-105 -26 -81 -48 -97 -25 -19 9 31 12 157 7 277 -3 56 -18 59 -32 6 -14 -59
-21 -61 -29 -6 -12 93 -27 84 -23 -15 2 -63 0 -96 -8 -102 -9 -8 -14 0 -19 30
-3 22 -11 40 -17 40 -7 0 -8 7 -3 18 7 16 10 35 13 100 1 19 5 22 21 17 16 -5
20 -2 20 19 0 14 -4 27 -8 30 -5 3 -7 18 -4 34 4 29 -33 132 -48 132 -4 0 -10
9 -13 20 -8 31 -32 24 -46 -15 -13 -37 -33 -49 -24 -15 3 11 0 26 -6 33 -13
16 -5 27 21 27 28 0 22 27 -16 65 -36 38 -44 42 -52 21z"/>
<path d="M9974 2494 c11 -55 52 -127 113 -196 57 -63 63 -77 36 -74 -26 2 -18
-54 14 -115 18 -32 23 -53 18 -66 -8 -17 -9 -17 -12 3 -2 12 -15 27 -28 34
-13 7 -26 23 -30 37 -3 13 -10 21 -16 18 -6 -4 0 -24 16 -51 14 -24 23 -44 19
-44 -5 0 1 -7 12 -15 15 -12 16 -16 5 -24 -11 -7 -10 -11 5 -19 33 -18 5 -27
-80 -26 l-83 1 -12 -146 c-7 -87 -17 -150 -24 -156 -16 -14 -18 -45 -2 -45 10
0 11 -5 2 -25 -7 -14 -15 -25 -19 -25 -11 0 -10 -28 1 -32 13 -5 24 -48 12
-48 -6 0 -11 4 -11 9 0 11 -66 26 -101 23 -15 -2 -33 4 -42 12 -15 15 -107 19
-107 5 0 -4 -17 -3 -38 2 -40 9 -69 7 -141 -10 -24 -5 -49 -8 -55 -5 -17 6
-59 -25 -100 -75 -47 -56 -56 -74 -74 -141 -28 -103 -20 -169 29 -225 l31 -35
-44 16 c-23 8 -89 20 -146 26 -96 11 -103 10 -118 -8 -15 -19 -15 -18 -9 2 4
18 -1 22 -40 31 -41 9 -73 2 -43 -10 10 -4 10 -7 0 -14 -31 -23 -46 -183 -17
-183 11 0 15 11 15 38 0 44 14 72 29 57 7 -7 8 -22 1 -45 -14 -47 -13 -50 10
-50 13 0 25 -11 33 -32 12 -29 12 -34 -2 -40 -29 -12 -51 -8 -71 12 -18 18
-50 18 -50 0 0 -5 10 -25 21 -45 15 -25 18 -40 11 -47 -13 -13 -44 -7 -50 10
-2 7 2 10 12 6 20 -8 21 16 1 42 -14 18 -14 18 -15 -4 0 -19 -2 -21 -14 -10
-8 7 -12 16 -9 21 2 4 -3 7 -11 7 -9 0 -16 -7 -16 -15 0 -8 -6 -12 -12 -10 -7
2 -21 -2 -31 -9 -20 -16 -15 -61 9 -70 8 -3 14 -11 14 -19 0 -7 11 -24 25 -37
14 -13 25 -28 25 -35 0 -12 58 -65 72 -65 5 0 6 -5 2 -11 -6 -10 -26 -8 -76 7
-10 3 -18 1 -18 -5 0 -5 10 -12 23 -15 12 -2 -5 -2 -38 1 -33 3 -63 9 -66 15
-3 5 -20 -2 -36 -16 -31 -26 -53 -33 -53 -18 0 17 67 72 87 72 12 0 25 4 28
10 9 15 -42 12 -74 -4 -15 -8 -33 -22 -40 -30 -12 -15 -31 -13 -31 2 0 4 16
24 35 45 58 63 41 82 -19 21 -20 -20 -37 -31 -41 -25 -7 13 7 40 34 65 19 17
29 46 16 46 -3 0 -18 -11 -34 -26 -25 -22 -29 -34 -35 -102 -4 -43 -4 -85 -1
-94 13 -33 133 -68 225 -66 l55 1 -54 6 c-30 3 -56 11 -58 17 -7 20 67 46 136
48 69 3 121 -15 121 -42 0 -8 6 -12 15 -8 20 7 35 -24 35 -74 0 -37 2 -40 15
-26 35 35 2 102 -81 167 -60 46 -194 185 -194 201 0 6 28 7 75 3 l75 -7 -6 46
c-6 40 -4 46 9 40 8 -3 18 -11 20 -18 5 -12 122 -43 140 -38 5 2 0 -9 -12 -24
-12 -15 -21 -33 -21 -40 0 -8 -4 -14 -9 -14 -15 0 -21 -45 -10 -83 5 -20 14
-37 19 -37 4 0 6 -8 4 -18 -5 -20 63 -75 83 -68 7 3 13 1 13 -3 0 -27 300
-116 308 -92 5 15 22 14 22 -2 0 -12 64 -37 95 -37 11 0 15 -11 15 -43 0 -65
40 -94 91 -66 14 7 24 7 32 0 7 -5 47 -21 90 -34 l77 -25 52 32 c29 18 85 52
123 75 39 24 81 54 94 68 24 25 26 26 125 19 129 -8 143 -12 155 -46 5 -16 20
-31 33 -35 12 -4 37 -21 55 -37 31 -30 34 -30 94 -24 34 4 89 20 124 37 39 18
93 33 145 40 76 10 88 10 134 -9 28 -11 68 -26 89 -32 24 -8 37 -18 37 -29 0
-24 31 -37 115 -49 68 -10 187 -46 236 -73 13 -7 44 -17 69 -21 25 -5 57 -11
71 -14 38 -8 48 11 38 81 -18 130 -21 187 -14 289 7 102 16 130 28 85 6 -22 6
-22 37 5 17 14 38 26 45 26 8 0 18 6 22 13 4 7 22 23 40 35 17 12 38 35 46 50
8 15 21 41 30 57 59 112 91 243 68 282 -9 15 -10 13 -11 -17 0 -50 -18 -25
-22 33 -4 45 -28 93 -28 54 0 -9 -4 -17 -10 -17 -10 0 -14 20 -12 53 1 9 -4
17 -10 17 -7 0 -3 7 8 15 11 8 14 15 7 15 -16 0 -53 36 -53 50 0 6 -12 16 -27
23 -40 17 -64 49 -51 65 8 9 8 16 0 24 -9 9 -12 8 -12 -4 0 -17 -33 -14 -58 5
-9 7 -16 7 -24 -1 -9 -9 -8 -12 5 -12 9 0 17 -4 17 -10 0 -14 -20 -12 -50 5
-14 8 -38 15 -55 15 l-30 0 24 19 23 18 -45 1 c-37 2 -63 -7 -130 -41 -73 -38
-87 -42 -118 -34 -19 5 -52 6 -74 2 -22 -4 -52 -8 -67 -8 -20 -2 -51 -26 -114
-87 -73 -72 -81 -78 -54 -39 34 50 34 88 -1 48 -10 -12 -19 -27 -19 -34 0 -7
-19 -12 -50 -13 -53 -1 -120 -20 -120 -34 0 -4 -14 -8 -31 -8 -24 0 -42 -12
-83 -54 -65 -66 -89 -80 -115 -66 -21 11 -26 8 -74 -49 -14 -17 -30 -30 -35
-29 -5 2 -26 -14 -47 -35 -29 -30 -37 -46 -40 -83 -1 -25 -8 -51 -14 -57 -6
-6 -11 -17 -11 -25 0 -12 3 -12 15 -2 13 11 19 9 36 -9 12 -12 19 -23 18 -25
-43 -28 -129 -110 -203 -196 -74 -84 -112 -118 -173 -155 -43 -26 -95 -63
-116 -81 -35 -32 -87 -46 -87 -24 0 15 29 59 59 93 14 15 19 27 12 27 -22 0
-55 -21 -97 -62 l-41 -39 -31 18 c-18 10 -32 22 -32 28 0 5 21 31 47 57 42 42
45 48 25 48 -14 0 -44 -21 -78 -56 -65 -65 -90 -68 -88 -10 2 48 17 76 57 101
65 42 32 67 -44 33 -43 -20 -49 -27 -49 -52 0 -21 -3 -27 -11 -19 -15 15 -19
100 -5 116 6 8 54 29 106 47 52 17 120 41 150 51 30 11 60 17 67 15 13 -5 13
-60 0 -73 -15 -14 -6 -23 18 -17 15 4 25 2 25 -5 0 -7 8 -8 26 -1 33 13 47 13
38 -1 -4 -7 1 -10 12 -7 22 4 32 38 11 38 -21 0 -57 35 -57 55 0 9 6 15 12 13
7 -3 13 -13 13 -23 0 -12 8 -19 22 -20 13 -1 32 -10 43 -20 21 -19 28 -7 8 14
-11 10 -9 15 5 25 11 9 15 20 10 32 -6 18 -6 18 14 2 21 -19 43 -24 43 -9 0 5
9 13 20 16 11 3 20 13 20 22 0 14 -2 14 -18 0 -34 -31 -59 -15 -27 17 19 19
19 26 0 26 -9 0 -18 -7 -21 -15 -4 -8 -13 -15 -21 -15 -23 0 64 95 147 159 41
33 89 73 105 91 17 17 52 41 78 52 30 13 52 30 58 45 11 29 45 43 85 35 25 -5
27 -3 16 10 -11 14 -5 17 50 25 l63 9 -32 17 c-18 9 -42 17 -55 17 -16 1 -4
10 38 29 93 43 121 86 171 264 5 17 3 18 -19 3 -12 -8 -32 -28 -42 -44 -11
-16 -28 -35 -39 -42 -17 -10 -23 -10 -32 4 -16 22 -22 20 -29 -9 -5 -18 -13
-25 -31 -25 -14 0 -30 -9 -37 -20 -7 -11 -18 -20 -25 -20 -7 0 -13 -4 -13 -10
0 -14 -33 -13 -48 2 -9 9 -15 9 -23 1 -9 -9 -8 -20 4 -45 9 -18 12 -35 8 -38
-5 -3 -10 -14 -12 -25 -3 -15 -12 -6 -38 40 -18 33 -40 68 -49 77 -14 17 -16
17 -28 1 -7 -10 -10 -22 -6 -27 3 -5 9 -1 14 10 6 14 7 12 3 -9 -4 -18 -1 -29
9 -33 22 -9 52 -82 38 -96 -9 -9 -12 -8 -12 5 0 9 -7 17 -15 17 -9 0 -12 6 -8
17 4 11 3 14 -5 9 -6 -4 -17 5 -26 22 -27 52 -66 164 -66 188 0 12 -5 26 -11
29 -6 4 -8 14 -5 22 4 9 1 22 -5 29 -6 7 -11 29 -12 49 -1 28 7 43 39 77 l39
41 -37 -22 c-21 -12 -42 -20 -47 -17 -5 4 -11 -6 -13 -21 -2 -17 -9 -28 -18
-28 -10 0 -14 8 -13 23 2 18 -2 22 -27 22 -47 0 -41 40 15 95 24 25 49 45 55
45 5 0 10 5 10 10 0 6 -7 10 -16 10 -12 0 -15 6 -11 23 3 12 11 58 17 102 12
80 12 80 -23 175 -19 52 -41 112 -49 134 -7 21 -18 41 -25 43 -9 4 -9 9 0 24
10 16 9 25 -6 50 -9 17 -15 35 -11 40 9 16 -6 31 -21 19 -9 -8 -21 0 -47 32
-50 61 -78 109 -78 135 0 12 -5 25 -11 29 -9 5 -10 -4 -5 -32z"/>
<path d="M4204 2465 c-4 -10 -15 -12 -34 -9 -22 5 -29 2 -34 -14 -6 -16 -22
-21 -99 -31 -54 -7 -106 -20 -125 -32 -19 -11 -52 -19 -77 -19 -35 0 -52 -6
-78 -29 -41 -37 -176 -65 -281 -59 -62 3 -71 7 -95 35 -40 47 -60 53 -183 53
-70 0 -118 4 -125 11 -17 17 -86 -10 -77 -31 4 -8 7 -23 8 -32 1 -10 10 -26
21 -38 14 -16 25 -19 56 -14 22 4 44 2 51 -4 7 -5 65 -11 128 -11 113 -1 116
-2 165 -35 34 -23 66 -35 99 -39 70 -7 196 15 232 41 18 13 56 25 97 31 38 5
75 15 82 21 7 6 44 16 82 21 106 15 133 26 149 65 11 26 20 34 39 34 35 0 48
30 29 69 -17 35 -22 37 -30 16z"/>
<path d="M2728 2232 c-3 -6 -2 -88 3 -537 1 -71 6 -133 11 -136 4 -3 16 -28
26 -55 25 -70 29 -74 76 -74 48 0 171 -30 201 -49 19 -12 19 -12 -2 -7 -13 3
-32 9 -43 12 -32 10 -23 -12 10 -26 16 -7 28 -15 26 -19 -4 -6 19 -10 67 -12
12 0 68 7 124 16 l102 18 -6 42 c-7 54 8 64 46 32 22 -18 46 -26 98 -31 51 -5
75 -13 96 -31 15 -13 27 -27 27 -31 0 -4 -22 -4 -48 0 -33 4 -54 2 -67 -8 -17
-12 -13 -14 36 -19 30 -3 72 -3 94 -1 22 3 65 6 95 7 69 2 91 14 65 34 -26 19
-44 16 -20 -4 19 -15 19 -15 -5 -9 -14 4 -37 9 -52 12 -15 4 -49 26 -75 51
-84 80 -142 113 -310 178 -85 33 -107 30 -165 -23 -28 -26 -37 -30 -27 -14 12
21 12 25 -5 37 -10 8 -24 17 -30 20 -8 3 -7 7 2 11 6 3 10 10 6 15 -7 13 -25
11 -22 -2 2 -6 -7 -18 -19 -26 -13 -9 -23 -11 -23 -5 0 6 4 13 10 17 17 11
-24 45 -62 51 -23 4 -38 13 -41 24 -3 10 -18 20 -38 24 -34 6 -34 6 -36 65 -1
32 -9 73 -17 89 -9 17 -16 44 -16 59 0 15 -7 60 -16 98 -9 39 -15 78 -15 88 3
71 6 87 15 87 17 0 -7 17 -41 28 -18 6 -34 8 -35 4z"/>
<path d="M4710 2224 c0 -3 6 -18 14 -32 16 -31 27 -59 50 -119 l16 -43 -39 0
c-21 0 -64 -11 -95 -25 -31 -14 -66 -25 -77 -25 -11 0 -17 -4 -14 -10 7 -11
44 -5 125 17 93 26 106 26 144 -7 51 -46 76 -100 76 -169 0 -75 -6 -91 -35
-91 -13 0 -25 -3 -27 -7 -1 -5 -23 -18 -48 -30 l-45 -23 60 0 c37 1 67 6 79
15 30 22 66 104 56 124 -5 9 -12 32 -15 52 -3 20 -19 54 -35 75 -17 20 -33 48
-36 61 -4 12 -10 23 -15 23 -5 0 -21 24 -35 53 -29 57 -95 167 -100 167 -2 0
-4 -3 -4 -6z"/>
<path d="M11275 2173 c-16 -2 -84 -18 -150 -35 -116 -29 -154 -45 -128 -55 12
-4 10 -20 -10 -60 -14 -31 -3 -39 25 -19 12 9 36 16 53 16 28 0 32 -5 53 -59
15 -38 21 -68 16 -85 -12 -51 14 -25 35 34 12 33 26 60 32 60 5 0 9 6 9 14 0
9 7 12 21 9 19 -5 21 -3 15 24 -6 28 -3 33 38 59 25 16 48 35 51 43 4 11 1 11
-13 -2 -21 -19 -32 -22 -32 -7 0 5 10 16 23 24 19 13 28 13 62 1 38 -13 41
-12 57 8 9 12 14 25 12 29 -5 8 -114 8 -169 1z"/>
<path d="M3160 1948 c0 -32 4 -58 9 -58 4 0 9 -21 10 -47 3 -84 15 -128 33
-125 9 1 22 -7 28 -18 11 -21 36 -26 59 -11 16 10 12 21 -54 148 -7 13 -15 20
-18 16 -4 -3 -7 5 -7 20 0 14 -3 33 -6 42 -6 13 -9 14 -16 3 -7 -10 -8 -8 -4
5 3 9 -3 32 -14 50 l-20 32 0 -57z"/>
<path d="M10656 1844 c-10 -26 -7 -54 6 -54 6 0 8 -3 5 -6 -4 -4 -13 -2 -21 5
-11 9 -15 8 -20 -4 -3 -8 -1 -15 3 -15 13 0 20 -25 11 -39 -6 -10 -12 -10 -29
-1 -18 9 -20 14 -10 26 8 10 8 14 0 14 -6 0 -11 -5 -11 -11 0 -6 -9 -8 -22 -3
-21 6 -21 5 -9 -10 17 -21 2 -40 -31 -41 -15 0 -22 -7 -23 -23 -1 -13 2 -25 7
-28 4 -3 8 -10 8 -16 0 -6 -8 -4 -18 5 -10 10 -31 17 -45 17 -19 0 -27 5 -27
18 0 14 -2 15 -10 2 -8 -12 -11 -12 -27 2 -10 9 -33 19 -50 23 -26 5 -33 3
-33 -9 0 -12 6 -15 25 -10 35 9 47 -24 17 -44 -12 -8 -22 -19 -22 -24 0 -5 12
0 26 11 45 36 78 28 134 -31 27 -29 73 -87 101 -128 l51 -76 64 0 c61 0 64 1
64 23 0 13 11 46 25 73 14 27 22 56 19 64 -4 10 -1 16 9 16 18 0 20 37 3 58
-7 10 -4 12 15 7 31 -8 53 15 44 44 -4 13 -11 18 -22 14 -11 -4 -14 -2 -9 5 4
7 16 12 27 12 22 0 25 13 6 32 -7 7 -22 31 -33 52 -22 42 -44 58 -44 32 0 -9
7 -16 15 -16 8 0 15 -4 15 -10 0 -15 -17 -12 -40 7 -13 12 -16 20 -9 29 7 8 6
14 -1 19 -13 8 -17 5 -20 -15 -5 -33 1 -50 18 -50 21 -1 58 -27 49 -36 -4 -4
-13 -1 -21 5 -8 7 -25 11 -38 9 -15 -2 -22 2 -20 10 1 7 -5 27 -15 45 -13 25
-18 28 -21 14 -5 -23 -38 -18 -36 6 2 21 -22 22 -30 1z"/>
<path d="M4004 1774 c18 -71 17 -79 -9 -104 -14 -14 -43 -42 -63 -62 -31 -31
-47 -38 -101 -46 -36 -5 -80 -6 -100 -1 -56 13 -69 10 -38 -9 15 -9 27 -19 27
-22 0 -3 4 -11 9 -19 7 -11 23 -8 87 14 44 15 84 33 89 39 6 6 34 26 63 45 28
18 52 37 52 43 0 5 11 24 25 42 30 40 31 52 5 66 -11 6 -20 17 -20 25 0 8 -7
15 -16 15 -12 0 -15 -6 -10 -26z"/>
<path d="M10916 1754 c-4 -14 -4 -63 0 -108 7 -91 2 -110 -48 -162 -33 -35
-32 -66 2 -84 11 -6 26 -33 35 -64 9 -30 23 -60 32 -68 14 -11 15 -11 10 2
-31 79 -40 121 -30 142 21 43 33 168 27 264 -7 97 -17 124 -28 78z"/>
<path d="M5312 1582 c-12 -2 -27 -13 -34 -25 -6 -12 -14 -24 -18 -27 -10 -7
-17 -160 -8 -160 5 0 8 -20 8 -45 0 -26 -5 -45 -11 -45 -7 0 -9 10 -5 25 5 18
2 25 -9 25 -8 0 -15 4 -15 10 0 15 -61 80 -75 80 -24 0 -25 -31 -5 -112 34
-137 33 -141 -73 -265 -49 -58 -76 -82 -91 -81 -34 2 -186 -40 -220 -61 -33
-20 -144 -54 -235 -71 -37 -7 -80 -7 -140 1 -47 6 -96 11 -108 11 -13 0 -23 4
-23 9 0 5 -19 12 -42 15 -28 5 -52 17 -71 38 -26 28 -29 29 -24 9 6 -28 -7
-30 -26 -3 -8 11 -16 17 -20 14 -3 -3 -22 2 -42 11 -19 10 -38 15 -42 12 -16
-16 13 -35 93 -61 49 -16 127 -41 174 -57 47 -15 116 -31 153 -34 45 -5 70
-12 74 -21 8 -21 25 -17 18 5 -3 11 -2 22 4 25 13 9 117 24 266 41 146 16 200
26 232 43 32 18 58 15 111 -12 56 -29 86 -59 107 -108 19 -47 19 -82 0 -98
-10 -9 -15 -9 -15 -1 0 6 -4 11 -10 11 -5 0 -7 -7 -4 -15 4 -9 -2 -18 -15 -23
-21 -8 -21 -8 6 -33 34 -32 176 -139 184 -139 6 0 23 67 40 160 7 36 21 76 31
89 23 30 15 41 -12 16 -20 -18 -20 -17 -20 8 0 16 10 32 27 45 16 11 25 24 21
28 -5 4 -16 0 -26 -9 -24 -22 -32 -21 -32 1 0 9 -9 41 -20 69 l-20 52 22 21
c13 11 33 23 45 26 13 4 23 10 23 15 0 10 -60 0 -77 -14 -9 -6 -15 -4 -19 8
-9 24 6 47 43 65 23 11 28 18 19 26 -13 12 -37 7 -48 -10 -15 -22 -26 11 -32
97 -5 57 -4 87 3 83 5 -3 17 2 27 11 17 17 17 18 0 21 -10 2 -23 -1 -29 -7
-19 -19 -30 -12 -24 17 3 15 -1 70 -9 122 -18 125 -18 129 10 136 14 3 27 13
31 21 7 19 6 20 -23 15z m-32 -680 c5 -13 10 -62 10 -109 0 -76 3 -90 25 -119
14 -18 25 -42 25 -53 0 -11 5 -23 10 -26 12 -7 13 -65 2 -82 -13 -20 -102 57
-95 81 3 10 5 46 5 80 -1 104 -66 198 -165 240 -20 8 -37 17 -37 20 0 3 19 15
43 27 71 35 141 129 121 161 -4 6 2 38 12 72 l19 61 7 -165 c4 -91 12 -175 18
-188z"/>
<path d="M6437 1544 c-4 -4 -42 -10 -84 -14 -52 -4 -108 -18 -168 -42 -49 -19
-133 -51 -186 -72 -101 -38 -186 -100 -160 -115 7 -5 14 -32 16 -62 2 -30 8
-89 14 -133 6 -43 8 -82 5 -87 -3 -6 -7 -56 -9 -112 -2 -57 -10 -121 -18 -146
-9 -24 -13 -50 -10 -58 3 -8 -2 -19 -11 -26 -9 -7 -17 -26 -19 -42 -2 -17 -7
-36 -11 -43 -9 -15 -46 -16 -46 -1 0 5 -4 7 -10 4 -5 -3 -10 -21 -10 -40 0
-19 5 -37 10 -40 6 -3 10 0 10 8 0 7 11 19 24 25 40 18 126 83 126 95 0 7 4
18 9 26 14 21 80 -24 97 -66 24 -55 130 -113 209 -113 23 0 27 3 15 10 -8 5
-25 10 -38 10 -13 0 -34 11 -48 25 -14 14 -30 25 -36 25 -7 0 -7 4 0 12 5 7
12 27 15 43 3 17 8 40 12 52 6 19 4 21 -29 18 -30 -3 -36 0 -36 17 0 11 -5 18
-12 15 -16 -5 -39 32 -63 106 -11 31 -23 57 -27 57 -4 0 -8 5 -8 12 0 9 3 9
12 0 15 -15 32 -16 23 -2 -4 6 -8 28 -9 50 -3 30 1 41 14 45 10 3 26 15 36 27
19 21 19 21 -6 14 -56 -18 -90 -19 -90 -3 0 8 7 21 16 28 11 9 14 23 11 45 -4
21 -1 34 6 37 9 3 9 8 -1 20 -16 19 -8 37 18 37 26 0 34 17 14 28 -16 9 -15
11 4 21 12 7 22 9 22 5 0 -3 7 -1 15 6 9 7 13 21 10 31 -5 14 1 22 21 29 15 6
34 8 42 5 10 -4 12 0 8 10 -3 9 -2 13 3 10 12 -7 41 34 41 57 0 10 4 18 9 18
5 0 11 9 14 20 3 13 10 18 21 14 10 -4 16 -1 16 8 0 14 32 16 62 3 9 -4 22 -4
28 0 5 3 10 0 10 -7 1 -7 13 2 29 20 15 17 34 32 43 32 9 0 21 7 28 15 7 8 19
15 27 15 8 0 11 5 8 10 -7 11 -19 13 -28 4z"/>
<path d="M6518 1461 c-14 -31 -14 -38 -2 -52 8 -8 14 -19 14 -22 0 -12 -28 -7
-32 5 -3 9 -9 8 -21 -4 -15 -15 -14 -16 21 -20 45 -6 54 5 48 57 -3 22 -3 34
0 28 8 -18 24 -16 24 3 0 9 6 14 13 11 6 -2 11 -14 10 -26 -2 -11 2 -21 8 -21
6 0 17 -6 24 -14 12 -11 12 -21 -1 -62 -8 -27 -13 -56 -10 -64 2 -10 4 -8 5 5
1 11 8 29 16 39 14 19 15 18 16 -15 0 -19 3 -27 6 -19 2 8 7 22 10 30 3 8 5
23 4 33 -1 9 3 17 8 17 15 0 14 26 -1 50 -10 15 -10 22 0 32 24 24 12 35 -40
35 -29 0 -65 3 -79 6 -22 4 -28 0 -41 -32z"/>
<path d="M4540 1443 c-36 -13 -137 -78 -156 -101 -39 -47 -83 -6 -53 50 6 11
9 22 6 24 -5 5 -70 -17 -132 -46 -43 -19 -127 -41 -134 -35 -2 3 8 9 22 14 23
9 57 51 41 51 -3 0 -32 -7 -63 -15 -31 -8 -83 -16 -116 -19 -80 -6 -108 -15
-100 -33 4 -12 -1 -14 -25 -11 -32 5 -37 -1 -18 -20 8 -8 4 -11 -18 -9 -40 3
-38 -23 3 -37 38 -13 59 -32 23 -21 -22 7 -23 6 -11 -9 17 -20 5 -20 -33 -1
-48 25 -53 1 -7 -31 22 -16 41 -32 41 -37 0 -10 -48 2 -93 25 -22 11 -42 17
-45 14 -3 -3 -3 -7 -1 -9 95 -70 114 -100 35 -53 -24 14 -47 26 -50 26 -3 0 4
-16 15 -35 12 -19 25 -35 30 -35 5 0 27 -11 49 -25 22 -14 51 -25 65 -25 20 0
25 -5 25 -25 0 -14 5 -25 11 -25 7 0 9 10 7 25 -6 30 1 31 52 5 22 -11 41 -20
43 -20 3 0 1 21 -4 47 -11 55 -2 70 50 79 20 4 44 11 55 16 13 7 21 6 26 -2 5
-8 35 2 106 35 55 26 122 59 150 72 54 25 94 57 94 74 0 6 -9 5 -22 -2 -48
-26 4 21 81 72 42 28 78 53 80 55 6 5 -11 4 -29 -3z"/>
<path d="M4720 1408 c0 -4 -8 -8 -19 -8 -10 0 -34 -11 -54 -24 -24 -17 -37
-21 -40 -13 -3 8 -22 3 -58 -17 -56 -30 -88 -54 -58 -43 9 3 41 8 72 12 46 6
64 3 100 -14 24 -11 53 -30 66 -42 12 -12 24 -19 27 -16 5 5 -64 69 -92 85
-10 6 -17 13 -14 15 3 3 23 -8 45 -24 48 -35 118 -70 125 -63 3 3 -2 9 -10 14
-39 22 -104 74 -95 76 6 1 40 5 78 9 75 7 91 25 22 25 -44 0 -54 7 -36 26 6 5
-3 9 -25 10 -19 0 -34 -3 -34 -8z"/>
<path d="M2622 1305 c-65 -77 -47 -246 38 -354 36 -45 43 -50 69 -45 38 8 56
-21 40 -63 -11 -29 -17 -74 -26 -201 -4 -57 -1 -78 12 -98 l16 -25 -30 16
c-17 8 -31 19 -31 24 0 5 -18 31 -40 59 -41 51 -135 112 -193 126 -43 10 -29
-14 16 -30 61 -21 146 -84 179 -132 24 -35 33 -60 36 -103 4 -51 2 -59 -24
-84 -23 -22 -25 -25 -7 -16 37 19 243 81 268 81 14 0 47 9 74 20 27 10 73 22
103 26 29 4 60 12 68 19 8 8 31 16 50 20 27 5 43 18 70 55 19 27 36 47 39 45
4 -5 -26 -54 -48 -75 -13 -13 -11 -15 23 -18 21 -2 65 3 99 12 34 8 88 18 119
21 54 7 59 6 80 -20 18 -20 36 -28 71 -32 57 -7 133 19 142 48 7 22 42 25 126
9 30 -6 95 -13 145 -15 51 -3 118 -13 150 -21 92 -25 135 -33 185 -34 47 0 72
-13 82 -42 7 -19 -7 -25 -18 -8 -3 5 -12 7 -20 3 -9 -3 -15 1 -15 8 0 10 -3
10 -12 1 -15 -15 22 -48 71 -62 29 -8 41 -6 70 11 28 17 45 20 86 14 60 -7 85
0 85 26 0 17 6 18 78 12 42 -3 79 -7 81 -9 2 -1 -6 -16 -18 -32 -22 -31 -28
-62 -12 -62 5 0 55 -27 111 -60 109 -64 110 -65 110 -51 0 5 -47 38 -105 73
-57 35 -105 67 -105 72 0 4 24 34 53 66 30 31 70 78 91 103 l37 46 -20 20
c-12 12 -21 30 -21 42 0 11 -6 27 -14 34 -21 22 -15 -44 8 -78 17 -25 18 -30
4 -44 -14 -14 -17 -12 -23 18 -4 19 -12 39 -17 46 -5 6 -8 17 -7 25 3 17 -22
68 -33 68 -12 0 -9 -50 7 -95 8 -21 13 -41 11 -43 -7 -6 -36 79 -36 103 0 14
-4 25 -10 25 -5 0 -10 -7 -10 -15 0 -9 -6 -12 -15 -9 -8 4 -15 1 -15 -5 0 -7
7 -14 15 -17 8 -3 19 -21 25 -40 14 -42 7 -70 -8 -34 -13 30 -52 79 -51 65 0
-13 32 -107 42 -122 5 -7 4 -13 0 -13 -5 0 -14 9 -21 21 -9 14 -20 19 -33 16
-15 -4 -23 4 -38 35 -10 22 -21 36 -25 30 -3 -6 -2 -13 3 -16 5 -3 7 -15 4
-26 -3 -11 0 -27 7 -35 21 -25 -5 -17 -30 10 -13 14 -26 23 -28 20 -3 -3 -12
1 -20 7 -8 7 -5 -3 7 -22 25 -42 27 -63 3 -35 -10 11 -28 29 -41 40 l-24 20 5
-27 c5 -28 -5 -38 -17 -17 -8 12 -52 32 -75 33 -11 1 -15 13 -15 45 0 28 -5
46 -13 49 -11 3 -12 -6 -7 -42 6 -39 5 -46 -9 -46 -10 0 -14 -5 -11 -10 4 -6
10 -8 14 -5 13 7 72 -25 79 -43 3 -9 0 -18 -6 -20 -7 -2 -12 -13 -12 -25 -1
-18 -5 -15 -24 15 -12 21 -26 35 -29 32 -4 -4 -12 -2 -19 3 -7 6 -27 14 -45
18 -19 4 -35 14 -38 26 -4 10 -16 20 -28 20 -82 6 -97 5 -97 -4 0 -5 -10 -6
-22 -2 -23 7 -80 12 -208 20 -69 4 -193 33 -198 47 -7 17 -22 6 -77 -62 -31
-39 -63 -70 -69 -70 -7 0 -21 8 -32 18 -36 31 -62 43 -67 29 -4 -9 -7 -9 -18
0 -11 11 -10 13 2 13 8 0 25 13 37 30 26 35 27 40 7 40 -9 0 -15 -9 -15 -22
l0 -21 -25 23 c-29 27 -42 22 -25 -11 11 -20 10 -21 -6 -14 -11 4 -37 11 -59
17 -22 5 -48 11 -59 14 -13 4 -16 2 -11 -6 6 -10 -1 -11 -31 -6 -109 20 -249
59 -324 92 -45 20 -135 63 -181 85 -19 10 -45 16 -57 12 -15 -4 -22 -1 -22 10
0 26 -29 43 -51 29 -10 -7 -21 -12 -23 -12 -2 0 -18 23 -34 51 -27 47 -30 50
-37 30 -9 -29 -22 -23 -56 24 l-28 40 10 142 c12 170 6 190 -39 138z m238
-465 c0 -5 13 -10 29 -10 28 0 77 -19 151 -59 19 -11 61 -31 92 -45 79 -36 86
-53 47 -110 -17 -25 -33 -46 -35 -46 -3 0 -2 5 1 10 3 6 -3 10 -14 10 -12 0
-21 -6 -21 -14 0 -8 -7 -17 -16 -20 -8 -3 -12 -2 -9 4 3 6 -1 10 -10 10 -11 0
-15 -5 -12 -14 3 -8 -4 -18 -18 -24 -20 -9 -26 -8 -35 6 -8 14 -9 13 -7 -8 2
-22 -3 -26 -44 -34 -61 -12 -92 -3 -130 36 -24 26 -29 38 -24 58 9 29 9 70 4
161 -3 46 0 71 10 82 15 19 41 23 41 7z"/>
<path d="M8614 950 c-67 -5 -104 -28 -104 -63 0 -11 -8 -26 -17 -33 -17 -11
-16 -13 7 -18 14 -4 39 -2 55 2 23 7 29 14 27 30 -3 17 2 22 20 22 13 0 28 4
34 10 26 26 148 8 187 -28 25 -24 29 -25 43 -10 15 14 11 18 -41 42 -88 40
-143 52 -211 46z"/>
<path d="M8550 411 c0 -26 6 -49 16 -59 21 -21 97 -55 154 -70 46 -12 211 -12
220 -1 3 4 21 14 40 22 33 14 25 15 -111 10 -123 -5 -156 -3 -200 11 -65 21
-104 53 -88 72 8 10 5 19 -10 35 l-21 23 0 -43z"/>
</g>
</svg>
